<svg id="Calque_1" data-name="Calque 1" xmlns="http://www.w3.org/2000/svg" viewBox="0 0 484.6 136.46"><path d="M88.28,6.35h58.48l0,17.24c-14.82.14-22.22.22-37,.41,0,13.06-.05,19.59-.08,32.65,11.78-.43,17.67-.62,29.45-1,0,6.93,0,10.39,0,17.32-11.78.45-17.67.71-29.45,1.29,0,15.18,0,22.77-.09,37.94,14.82-1.13,22.23-1.62,37.07-2.45,0,6.89,0,10.34,0,17.24-23.43,1.53-35.13,2.51-58.5,4.93Z" transform="translate(-5.04 -6.35)" style="fill:#e31019"/><path d="M175,23.36c-9,.06-13.45.1-22.42.18,0-6.88,0-10.32,0-17.19h66.28V23.16c-9,0-13.46,0-22.43.08q-.06,50.67-.13,101.34c-8.6.29-12.9.46-21.49.86Z" transform="translate(-5.04 -6.35)" style="fill:#e31019"/><path d="M229.21,6.35h56.73c0,6.73,0,10.1,0,16.84-14.12-.05-21.18-.07-35.3-.07v32.7c11.08,0,16.63,0,27.71.13,0,6.73,0,10.09,0,16.82-11.09-.13-16.64-.16-27.73-.18v51.16c-8.6,0-12.9,0-21.51.1Z" transform="translate(-5.04 -6.35)" style="fill:#e31019"/><path d="M296.26,6.35h21.45q.07,51,.17,102c14.14.55,21.21.9,35.34,1.73,0,6.91,0,10.37,0,17.29-22.72-1.56-34.1-2.13-56.85-2.85Z" transform="translate(-5.04 -6.35)" style="fill:#e31019"/><path d="M363.32,6.35h21.44q.15,61.76.29,123.53c-8.58-.77-12.87-1.12-21.46-1.77Z" transform="translate(-5.04 -6.35)" style="fill:#e31019"/><path d="M400.74,6.35H431q7.31,47.19,14.38,94.42,7.13-47.2,14.08-94.42h30.22V142.81c-8.06-1.28-12.09-1.89-20.17-3.06q0-50.5-.08-101-7.81,49.41-15.83,98.78c-7.15-1-10.73-1.42-17.89-2.3q-7.94-49-16.15-98,.11,48.08.2,96.16c-7.47-.83-11.21-1.23-18.69-2Q400.88,68.87,400.74,6.35Z" transform="translate(-5.04 -6.35)" style="fill:#e31019"/><path d="M72.3,6.35H45.79q-10.9,39.72-21.51,79.5-.08-39.75-.13-79.5H5c.09,45,.18,91.48.26,136.46,8.64-.91,13-2.29,21.59-3.31,8.57-32.6,17.33-65.78,26.33-98.28,0,31.43.05,63.3.08,94.73,7.6-1,11.41-1.17,19-2.29Z" transform="translate(-5.04 -6.35)" style="fill:#e31019"/></svg>